<?xml version="1.0" encoding="utf-8"?>
<!-- Generator: Adobe Illustrator 22.0.1, SVG Export Plug-In . SVG Version: 6.00 Build 0)  -->
<svg version="1.1"
	 id="svg2" inkscape:version="0.48.3.1 r9886" sodipodi:docname="muscular_system_front.svg" xmlns:cc="http://creativecommons.org/ns#" xmlns:dc="http://purl.org/dc/elements/1.1/" xmlns:inkscape="http://www.inkscape.org/namespaces/inkscape" xmlns:rdf="http://www.w3.org/1999/02/22-rdf-syntax-ns#" xmlns:sodipodi="http://sodipodi.sourceforge.net/DTD/sodipodi-0.dtd" xmlns:svg="http://www.w3.org/2000/svg"
	 xmlns="http://www.w3.org/2000/svg" xmlns:xlink="http://www.w3.org/1999/xlink" x="0px" y="0px" viewBox="0 0 200 369"
	 style="enable-background:new 0 0 200 369;" xml:space="preserve">
<style type="text/css">
	.st0{opacity:0.52;}
	.st1{fill:#FC0000;}
</style>
<g class="st0">
	
		<sodipodi:namedview  bordercolor="#666666" borderopacity="1.0" fit-margin-bottom="0" fit-margin-left="0" fit-margin-right="0" fit-margin-top="0" height="524.41px" id="base" inkscape:current-layer="layer1" inkscape:cx="93.552734" inkscape:cy="165.08135" inkscape:document-units="px" inkscape:pageopacity="0" inkscape:pageshadow="2" inkscape:window-height="624" inkscape:window-maximized="0" inkscape:window-width="910" inkscape:window-x="493" inkscape:window-y="165" inkscape:zoom="0.98994949" pagecolor="#ffffff" showgrid="false">
		</sodipodi:namedview>
	<path class="st1" d="M131.5,153.5c0,0-9.9,13.3-10.9,16.4s-8.5,7-11.5,8s2.4-7.5,2.7-9.6c0.3-2.2,5.7-13.4,6-18.5
		c0.3-5-0.7-15.5-0.2-18.2s9.7,3.1,10.7,3.9c1,0.7,0.4,6,1.3,8.6S131.5,153.5,131.5,153.5z"/>
	<path class="st1" d="M66.7,153.5c0,0,9.9,13.3,10.9,16.4s8.5,7,11.5,8s-2.4-7.5-2.7-9.6s-5.7-13.4-6-18.5c-0.3-5,0.7-15.5,0.2-18.2
		s-9.7,3.1-10.7,3.9c-1,0.7-0.4,6-1.3,8.6C67.7,146.7,66.7,153.5,66.7,153.5z"/>
</g>
</svg>
