<?xml version="1.0" encoding="utf-8"?>
<!-- Generator: Adobe Illustrator 22.0.1, SVG Export Plug-In . SVG Version: 6.00 Build 0)  -->
<svg version="1.1"
	 id="svg2" inkscape:version="0.48.3.1 r9886" sodipodi:docname="muscular_system_back.svg" xmlns:cc="http://creativecommons.org/ns#" xmlns:dc="http://purl.org/dc/elements/1.1/" xmlns:inkscape="http://www.inkscape.org/namespaces/inkscape" xmlns:rdf="http://www.w3.org/1999/02/22-rdf-syntax-ns#" xmlns:sodipodi="http://sodipodi.sourceforge.net/DTD/sodipodi-0.dtd" xmlns:svg="http://www.w3.org/2000/svg"
	 xmlns="http://www.w3.org/2000/svg" xmlns:xlink="http://www.w3.org/1999/xlink" x="0px" y="0px" viewBox="0 0 200 369"
	 style="enable-background:new 0 0 200 369;" xml:space="preserve">
<style type="text/css">
	.st0{opacity:0.52;}
	.st1{fill:#FC0000;}
</style>
<g class="st0">
	
		<sodipodi:namedview  bordercolor="#666666" borderopacity="1.0" fit-margin-bottom="0" fit-margin-left="0" fit-margin-right="0" fit-margin-top="0" id="base" inkscape:current-layer="layer1" inkscape:cx="570.65203" inkscape:cy="99.557377" inkscape:document-units="px" inkscape:pageopacity="0" inkscape:pageshadow="2" inkscape:window-height="577" inkscape:window-maximized="0" inkscape:window-width="844" inkscape:window-x="748" inkscape:window-y="66" inkscape:zoom="0.35" pagecolor="#ffffff" showgrid="false">
		</sodipodi:namedview>
	<path class="st1" d="M157,91.8c0.5,3.3,0.4-10.9-2.7-15.7c-3-4.8-8.6-7.5-11.2-8.7s-5.8-2.8-6.7-2.7c-0.9,0.1,0.7,0.5,3.7,3.1
		c3,2.6,10.6,8.2,11.1,9.7S156.8,90.3,157,91.8z"/>
	<path class="st1" d="M43.7,91.8C43.1,95,43.3,80.8,46.3,76s8.6-7.5,11.2-8.7s5.8-2.8,6.7-2.7s-0.7,0.5-3.7,3.1s-10.6,8.2-11.1,9.7
		S43.9,90.3,43.7,91.8z"/>
</g>
</svg>
