<?xml version="1.0" encoding="utf-8"?>
<!-- Generator: Adobe Illustrator 22.0.1, SVG Export Plug-In . SVG Version: 6.00 Build 0)  -->
<svg version="1.1"
	 id="svg2" inkscape:version="0.48.3.1 r9886" sodipodi:docname="muscular_system_back.svg" xmlns:cc="http://creativecommons.org/ns#" xmlns:dc="http://purl.org/dc/elements/1.1/" xmlns:inkscape="http://www.inkscape.org/namespaces/inkscape" xmlns:rdf="http://www.w3.org/1999/02/22-rdf-syntax-ns#" xmlns:sodipodi="http://sodipodi.sourceforge.net/DTD/sodipodi-0.dtd" xmlns:svg="http://www.w3.org/2000/svg"
	 xmlns="http://www.w3.org/2000/svg" xmlns:xlink="http://www.w3.org/1999/xlink" x="0px" y="0px" viewBox="0 0 200 369"
	 style="enable-background:new 0 0 200 369;" xml:space="preserve">
<style type="text/css">
	.st0{opacity:0.52;fill:#FC0000;}
</style>
<sodipodi:namedview  bordercolor="#666666" borderopacity="1.0" fit-margin-bottom="0" fit-margin-left="0" fit-margin-right="0" fit-margin-top="0" id="base" inkscape:current-layer="layer1" inkscape:cx="570.65203" inkscape:cy="99.557377" inkscape:document-units="px" inkscape:pageopacity="0" inkscape:pageshadow="2" inkscape:window-height="577" inkscape:window-maximized="0" inkscape:window-width="844" inkscape:window-x="748" inkscape:window-y="66" inkscape:zoom="0.35" pagecolor="#ffffff" showgrid="false">
	</sodipodi:namedview>
<g>
	<path class="st0" d="M157.1,105.8c0,0-0.1-7.9,0-9.3c0.1-1.4,0-10.1-0.3-11.4c-0.3-1.3-0.8-6.9-3.3-8.6c-2.5-1.6-6.7-7.8-9.9-7.6
		s-4.6-1.1-7.6,0.5c-3,1.5-9,6-9.3,6.6s0.2,5.7,3.5,6.9c3.3,1.2,8.7,11.2,12.8,11.9s6,4.6,8.8,6.7
		C154.6,103.7,157.1,105.8,157.1,105.8z"/>
	<path class="st0" d="M43.2,105.8c0,0,0.1-7.9,0-9.3s0-10.1,0.3-11.4s0.8-6.9,3.3-8.6s6.7-7.8,9.9-7.6s4.6-1.1,7.6,0.5
		c3,1.5,9,6,9.3,6.6s-0.2,5.7-3.5,6.9s-8.7,11.2-12.8,11.9s-6,4.6-8.8,6.7S43.2,105.8,43.2,105.8z"/>
</g>
</svg>
