<svg version="1.1" fill="#FFF" xmlns="http://www.w3.org/2000/svg" x="0px" y="0px" viewBox="0 0 64 64" style="enable-background:new 0 0 64 64;" xml:space="preserve">
<path id="XMLID_22_" d="M45.7,39c-2.8,0-5.2,1.3-6.8,3.4L26.2,35c0.4-1,0.7-2.2,0.7-3.4c0-1.2-0.2-2.3-0.7-3.4l12.6-6.6
	c1.6,2.1,4,3.4,6.8,3.4c4.7,0,8.6-3.9,8.6-8.6s-3.9-8.6-8.6-8.6c-4.7,0-8.6,3.9-8.6,8.6c0,1.2,0.3,2.4,0.7,3.5l-12.5,6.6
	c-1.6-2.1-4.1-3.5-6.9-3.5c-4.7,0-8.6,3.9-8.6,8.6c0,4.7,3.9,8.6,8.6,8.6c2.8,0,5.3-1.4,6.9-3.5l12.6,7.4c-0.5,1.1-0.7,2.2-0.7,3.5
	c0,4.7,3.9,8.6,8.6,8.6c4.7,0,8.6-3.9,8.6-8.6C54.3,42.9,50.4,39,45.7,39z M45.7,9.8c3.6,0,6.6,3,6.6,6.6c0,3.6-3,6.6-6.6,6.6
	c-3.6,0-6.6-3-6.6-6.6C39.1,12.7,42,9.8,45.7,9.8z M18.3,38.2c-3.6,0-6.6-3-6.6-6.6c0-3.6,3-6.6,6.6-6.6c3.6,0,6.6,3,6.6,6.6
	C24.9,35.2,22,38.2,18.3,38.2z M45.7,54.2c-3.6,0-6.6-3-6.6-6.6c0-3.6,3-6.6,6.6-6.6c3.6,0,6.6,3,6.6,6.6
	C52.3,51.3,49.3,54.2,45.7,54.2z"></path>
</svg>
