<svg version="1.1" xmlns="http://www.w3.org/2000/svg" x="0px" y="0px" viewBox="0 0 64 64" style="enable-background:new 0 0 64 64;" xml:space="preserve">
<g id="XMLID_2_">
	<path id="XMLID_3_" d="M24.4,51c-4.9,0-10-1.4-15-4.3C9,46.5,8.8,46,8.9,45.5c0.2-0.5,0.6-0.7,1.1-0.6c0.1,0,5.7,0.9,10.7-2.1
		c-2.1-0.6-5-2.2-6.8-6.6c-0.2-0.4-0.1-0.8,0.2-1c0.2-0.2,0.5-0.4,0.8-0.3c-2-1.5-4.1-4-4.3-8.1c0-0.4,0.2-0.7,0.5-0.9
		c0.3-0.2,0.7-0.2,1,0c0.2,0.1,0.4,0.2,0.7,0.3c-1.7-2.3-3.2-6.1-0.7-10.9c0.2-0.3,0.5-0.5,0.8-0.5c0.3,0,0.7,0.1,0.9,0.4
		c0.1,0.1,6.9,8.6,16.8,9.1c-0.4-4,1.6-7.9,5.2-9.9c3.7-2.1,8.2-1.5,11.7,1.5c1.6-0.4,4-1.2,4.8-1.9c0.3-0.3,0.8-0.3,1.2-0.1
		c0.4,0.2,0.6,0.6,0.5,1.1c0,0.1-0.3,1.4-1.7,3.2c0.6-0.2,1.1-0.4,1.4-0.6c0.4-0.3,0.9-0.2,1.3,0.1c0.3,0.3,0.4,0.9,0.1,1.3
		c-0.1,0.1-1.9,2.7-4.3,4.6c0.5,9-4.6,18.5-12.8,23.6C33.7,49.7,29.1,51,24.4,51z M14.4,46.9c7.9,3.2,15.7,2.7,22.4-1.6
		c7.6-4.8,12.5-14,11.8-22.3c0-0.3,0.1-0.7,0.4-0.9c0.7-0.5,1.4-1.2,2-1.8c-1,0.2-1.8,0.3-2,0.3c-0.4,0.1-0.9-0.2-1.1-0.6
		c-0.2-0.4,0-0.9,0.3-1.2c0.9-0.7,1.6-1.3,2.1-1.9c-1.4,0.5-2.8,0.8-3.1,0.9c-0.3,0.1-0.7,0-0.9-0.2c-3-2.8-6.7-3.4-9.8-1.6
		c-3.1,1.8-4.7,5.4-4,8.9c0.1,0.3,0,0.6-0.2,0.8c-0.2,0.2-0.5,0.4-0.8,0.4c-9.1,0.1-15.9-5.9-18.4-8.6c-2,5.8,2.9,9.3,3.1,9.4
		c0.3,0.2,0.5,0.6,0.4,1c-0.1,0.4-0.4,0.7-0.8,0.8c-0.9,0.2-2.1-0.1-3.1-0.5c1.1,5.2,6.1,6.3,6.3,6.4c0.4,0.1,0.7,0.4,0.8,0.8
		c0.1,0.4-0.1,0.8-0.4,1c-0.8,0.5-1.9,0.6-2.9,0.6c2.6,4.2,6.4,4,6.6,4c0.4,0,0.8,0.2,1,0.6c0.2,0.4,0.1,0.8-0.3,1.1
		C20.8,45.7,17.2,46.6,14.4,46.9z"></path>
</g>
</svg>
