<svg version="1.1" fill="#FFF" xmlns="http://www.w3.org/2000/svg" x="0px" y="0px" viewBox="0 0 64 64" style="enable-background:new 0 0 64 64;" xml:space="preserve">
<g>
	<g>
		<path d="M32,9.2c12.6,0,22.8,10.2,22.8,22.8S44.6,54.8,32,54.8S9.2,44.6,9.2,32S19.4,9.2,32,9.2 M32,7.1C18.3,7.1,7.1,18.3,7.1,32
			S18.3,56.9,32,56.9S56.9,45.7,56.9,32S45.7,7.1,32,7.1L32,7.1z"></path>
	</g>
	<g>
		<path d="M32,10c2.6,2.8,8.3,10.2,8.3,22c0,12.1-5.7,19.3-8.3,22c-2.6-2.7-8.3-10-8.3-22C23.7,20.3,29.4,12.8,32,10 M32,7.1
			c0,0-10.4,8.4-10.4,24.9C21.6,48.7,32,56.9,32,56.9S42.4,48.7,42.4,32C42.4,15.5,32,7.1,32,7.1L32,7.1z"></path>
	</g>
	<g>
		<rect id="XMLID_3_" x="11.3" y="19.6" width="41.4" height="2.1"></rect>
	</g>
	<g>
		<rect id="XMLID_2_" x="11.3" y="42.4" width="41.4" height="2.1"></rect>
	</g>
	<g>
		<rect id="XMLID_1_" x="8.2" y="31" width="47.6" height="2.1"></rect>
	</g>
</g>
</svg>
